<?xml version="1.0" standalone="no"?>
<!DOCTYPE svg PUBLIC "-//W3C//DTD SVG 20010904//EN"
 "http://www.w3.org/TR/2001/REC-SVG-20010904/DTD/svg10.dtd">
<svg version="1.0" xmlns="http://www.w3.org/2000/svg"
 width="130.000000pt" height="130.000000pt" viewBox="0 0 130.000000 130.000000"
 preserveAspectRatio="xMidYMid meet">
<metadata>
Created by potrace 1.14, written by Peter Selinger 2001-2017
</metadata>
<g transform="translate(0.000000,130.000000) scale(0.100000,-0.100000)"
fill="#000000" stroke="none">
<path d="M741 1263 c-11 -22 -34 -46 -55 -57 -20 -11 -36 -27 -36 -36 0 -9 16
-25 36 -36 21 -11 44 -35 55 -56 11 -21 26 -38 34 -38 8 0 23 17 34 38 11 21
34 45 55 56 47 25 47 50 -2 75 -23 12 -44 33 -55 55 -21 46 -42 46 -66 -1z
m56 -116 l-22 -22 -22 23 -22 22 22 23 22 22 22 -23 22 -22 -22 -23z"/>
<path d="M975 1065 c-212 -180 -242 -202 -259 -192 -10 7 -38 62 -62 122 -24
60 -48 113 -54 119 -27 27 -145 -66 -156 -124 -6 -26 -9 -27 -45 -23 -68 10
-126 -30 -142 -97 -4 -15 -20 -33 -41 -44 -41 -22 -69 -73 -65 -119 2 -24 -4
-39 -23 -58 -32 -32 -49 -88 -39 -126 5 -21 2 -36 -16 -62 -26 -39 -30 -89 -8
-130 13 -25 12 -33 -2 -69 -31 -79 16 -165 97 -178 34 -6 40 -10 47 -43 l9
-36 89 0 c83 0 90 1 90 20 0 18 -8 20 -72 23 l-71 3 -13 87 c-18 119 -16 309
4 402 25 115 85 227 157 294 34 31 65 56 71 56 5 0 9 14 9 30 0 44 23 93 55
118 15 12 31 22 35 22 4 0 25 -45 46 -100 l39 -100 160 -128 c206 -164 371
-306 379 -327 13 -36 6 -102 -15 -129 -25 -32 -69 -56 -102 -56 -14 0 -84 25
-158 55 -132 55 -133 56 -171 40 -86 -34 -184 -10 -249 62 -47 52 -63 101 -55
167 3 28 7 62 8 76 2 19 -2 25 -17 25 -40 0 -56 -114 -29 -205 30 -100 149
-190 251 -190 31 0 36 -4 58 -52 13 -29 27 -74 30 -100 l7 -47 -83 -3 c-76 -3
-84 -5 -84 -23 0 -19 7 -20 105 -20 l105 0 -1 66 c-1 44 -10 86 -26 126 l-25
61 21 10 c17 7 47 -1 141 -41 133 -55 196 -64 252 -34 79 42 115 146 78 228
-17 37 -103 118 -256 242 l-47 38 82 137 c195 325 238 403 232 417 -3 8 -11
15 -18 14 -7 0 -121 -92 -253 -204z m88 -48 c-59 -98 -70 -104 -75 -39 -3 27
5 38 62 85 36 30 66 54 68 52 1 -1 -23 -46 -55 -98z m-114 -101 c15 -61 14
-69 -11 -111 -25 -43 -30 -38 -48 48 -11 56 -11 60 11 83 12 13 26 24 30 24 3
0 12 -20 18 -44z m-586 -43 c-50 -50 -71 -54 -54 -11 12 32 48 58 78 58 21 0
18 -5 -24 -47z m482 -55 c8 -44 1 -47 -38 -12 l-29 24 24 20 c27 22 34 17 43
-32z m-578 -39 c17 -17 -36 -122 -54 -107 -20 17 -16 69 9 95 24 26 30 27 45
12z m-70 -167 c8 -5 8 -20 -1 -62 -14 -62 -33 -71 -55 -26 -12 25 -11 33 3 62
15 34 30 41 53 26z m-44 -176 c13 -10 17 -28 17 -70 0 -62 -9 -68 -45 -31 -27
27 -31 51 -13 90 13 29 16 29 41 11z m30 -239 c3 -34 4 -63 2 -65 -8 -8 -47
11 -65 31 -22 22 -26 58 -11 86 7 13 18 16 39 13 28 -4 30 -7 35 -65z"/>
<path d="M1143 866 c-26 -27 -30 -56 -9 -56 8 0 18 -9 21 -20 8 -25 35 -26 42
-1 3 11 13 21 24 24 25 7 24 34 -1 42 -11 3 -20 13 -20 21 0 22 -32 16 -57
-10z"/>
<path d="M560 705 c-19 -23 -2 -35 49 -35 33 0 56 -6 74 -20 40 -32 69 -20 47
20 -24 45 -142 69 -170 35z"/>
<path d="M1084 389 c-10 -17 23 -46 37 -32 7 7 9 19 6 27 -7 18 -33 21 -43 5z"/>
<path d="M473 34 c-9 -23 13 -40 32 -24 12 10 13 16 4 26 -15 18 -28 18 -36
-2z"/>
</g>
</svg>
